<svg id="visual" viewBox="0 0 900 600" width="900" height="600" xmlns="http://www.w3.org/2000/svg" xmlns:xlink="http://www.w3.org/1999/xlink" version="1.1"><rect x="0" y="0" width="900" height="600" fill="#101010"></rect><path d="M0 356L13.7 362.3C27.3 368.7 54.7 381.3 82 382.3C109.3 383.3 136.7 372.7 163.8 374C191 375.3 218 388.7 245.2 392C272.3 395.3 299.7 388.7 327 387.2C354.3 385.7 381.7 389.3 409 399C436.3 408.7 463.7 424.3 491 422.5C518.3 420.7 545.7 401.3 573 397.2C600.3 393 627.7 404 654.8 399.5C682 395 709 375 736.2 375.8C763.3 376.7 790.7 398.3 818 409C845.3 419.7 872.7 419.3 886.3 419.2L900 419L900 601L886.3 601C872.7 601 845.3 601 818 601C790.7 601 763.3 601 736.2 601C709 601 682 601 654.8 601C627.7 601 600.3 601 573 601C545.7 601 518.3 601 491 601C463.7 601 436.3 601 409 601C381.7 601 354.3 601 327 601C299.7 601 272.3 601 245.2 601C218 601 191 601 163.8 601C136.7 601 109.3 601 82 601C54.7 601 27.3 601 13.7 601L0 601Z" fill="#c7fff3"></path><path d="M0 467L13.7 465.7C27.3 464.3 54.7 461.7 82 454.8C109.3 448 136.7 437 163.8 427C191 417 218 408 245.2 414.7C272.3 421.3 299.7 443.7 327 451.7C354.3 459.7 381.7 453.3 409 449.2C436.3 445 463.7 443 491 436.3C518.3 429.7 545.7 418.3 573 416C600.3 413.7 627.7 420.3 654.8 431.7C682 443 709 459 736.2 454.8C763.3 450.7 790.7 426.3 818 416.5C845.3 406.7 872.7 411.3 886.3 413.7L900 416L900 601L886.3 601C872.7 601 845.3 601 818 601C790.7 601 763.3 601 736.2 601C709 601 682 601 654.8 601C627.7 601 600.3 601 573 601C545.7 601 518.3 601 491 601C463.7 601 436.3 601 409 601C381.7 601 354.3 601 327 601C299.7 601 272.3 601 245.2 601C218 601 191 601 163.8 601C136.7 601 109.3 601 82 601C54.7 601 27.3 601 13.7 601L0 601Z" fill="#81d3da"></path><path d="M0 507L13.7 506.7C27.3 506.3 54.7 505.7 82 506.2C109.3 506.7 136.7 508.3 163.8 497.2C191 486 218 462 245.2 459.3C272.3 456.7 299.7 475.3 327 478.3C354.3 481.3 381.7 468.7 409 460.3C436.3 452 463.7 448 491 446.3C518.3 444.7 545.7 445.3 573 456.2C600.3 467 627.7 488 654.8 492.7C682 497.3 709 485.7 736.2 481.2C763.3 476.7 790.7 479.3 818 484.8C845.3 490.3 872.7 498.7 886.3 502.8L900 507L900 601L886.3 601C872.7 601 845.3 601 818 601C790.7 601 763.3 601 736.2 601C709 601 682 601 654.8 601C627.7 601 600.3 601 573 601C545.7 601 518.3 601 491 601C463.7 601 436.3 601 409 601C381.7 601 354.3 601 327 601C299.7 601 272.3 601 245.2 601C218 601 191 601 163.8 601C136.7 601 109.3 601 82 601C54.7 601 27.3 601 13.7 601L0 601Z" fill="#3da6c6"></path><path d="M0 523L13.7 518C27.3 513 54.7 503 82 497.5C109.3 492 136.7 491 163.8 491.7C191 492.3 218 494.7 245.2 496C272.3 497.3 299.7 497.7 327 495.7C354.3 493.7 381.7 489.3 409 496.5C436.3 503.7 463.7 522.3 491 526.2C518.3 530 545.7 519 573 517.3C600.3 515.7 627.7 523.3 654.8 519.8C682 516.3 709 501.7 736.2 500.2C763.3 498.7 790.7 510.3 818 516C845.3 521.7 872.7 521.3 886.3 521.2L900 521L900 601L886.3 601C872.7 601 845.3 601 818 601C790.7 601 763.3 601 736.2 601C709 601 682 601 654.8 601C627.7 601 600.3 601 573 601C545.7 601 518.3 601 491 601C463.7 601 436.3 601 409 601C381.7 601 354.3 601 327 601C299.7 601 272.3 601 245.2 601C218 601 191 601 163.8 601C136.7 601 109.3 601 82 601C54.7 601 27.3 601 13.7 601L0 601Z" fill="#0078ae"></path><path d="M0 524L13.7 531.3C27.3 538.7 54.7 553.3 82 559C109.3 564.7 136.7 561.3 163.8 559.2C191 557 218 556 245.2 556.8C272.3 557.7 299.7 560.3 327 563.2C354.3 566 381.7 569 409 569.5C436.3 570 463.7 568 491 565.5C518.3 563 545.7 560 573 556.8C600.3 553.7 627.7 550.3 654.8 552C682 553.7 709 560.3 736.2 564.7C763.3 569 790.7 571 818 565.7C845.3 560.3 872.7 547.7 886.3 541.3L900 535L900 601L886.3 601C872.7 601 845.3 601 818 601C790.7 601 763.3 601 736.2 601C709 601 682 601 654.8 601C627.7 601 600.3 601 573 601C545.7 601 518.3 601 491 601C463.7 601 436.3 601 409 601C381.7 601 354.3 601 327 601C299.7 601 272.3 601 245.2 601C218 601 191 601 163.8 601C136.7 601 109.3 601 82 601C54.7 601 27.3 601 13.7 601L0 601Z" fill="#0d498d"></path></svg>